<svg width="1200" height="720" viewBox="0 0 1200 720" fill="none" xmlns="http://www.w3.org/2000/svg">
  <rect width="1200" height="720" rx="40" fill="#F7F1E7"/>
  <rect x="52" y="52" width="1096" height="616" rx="30" fill="url(#paint0_linear)"/>
  <circle cx="275" cy="255" r="180" fill="url(#paint1_radial)" fill-opacity="0.9"/>
  <circle cx="890" cy="252" r="210" fill="url(#paint2_radial)" fill-opacity="0.76"/>
  <circle cx="637" cy="495" r="220" fill="url(#paint3_radial)" fill-opacity="0.92"/>
  <rect x="160" y="152" width="320" height="28" rx="14" fill="white" fill-opacity="0.7"/>
  <rect x="160" y="204" width="508" height="16" rx="8" fill="white" fill-opacity="0.46"/>
  <rect x="160" y="236" width="468" height="16" rx="8" fill="white" fill-opacity="0.4"/>
  <rect x="160" y="316" width="880" height="1.5" fill="white" fill-opacity="0.38"/>
  <rect x="160" y="365" width="420" height="18" rx="9" fill="white" fill-opacity="0.5"/>
  <rect x="160" y="404" width="610" height="18" rx="9" fill="white" fill-opacity="0.36"/>
  <rect x="160" y="443" width="550" height="18" rx="9" fill="white" fill-opacity="0.36"/>
  <rect x="160" y="520" width="880" height="92" rx="24" fill="white" fill-opacity="0.18"/>
  <defs>
    <linearGradient id="paint0_linear" x1="158" y1="106" x2="1006" y2="644" gradientUnits="userSpaceOnUse">
      <stop stop-color="#EBDCC5"/>
      <stop offset="0.47" stop-color="#C9DDF0"/>
      <stop offset="1" stop-color="#D8E8D6"/>
    </linearGradient>
    <radialGradient id="paint1_radial" cx="0" cy="0" r="1" gradientUnits="userSpaceOnUse" gradientTransform="translate(275 255) rotate(90) scale(180)">
      <stop stop-color="#FFF7CE"/>
      <stop offset="1" stop-color="#FFF7CE" stop-opacity="0"/>
    </radialGradient>
    <radialGradient id="paint2_radial" cx="0" cy="0" r="1" gradientUnits="userSpaceOnUse" gradientTransform="translate(890 252) rotate(90) scale(210)">
      <stop stop-color="#D9EEFF"/>
      <stop offset="1" stop-color="#D9EEFF" stop-opacity="0"/>
    </radialGradient>
    <radialGradient id="paint3_radial" cx="0" cy="0" r="1" gradientUnits="userSpaceOnUse" gradientTransform="translate(637 495) rotate(90) scale(220)">
      <stop stop-color="#E0F5D9"/>
      <stop offset="1" stop-color="#E0F5D9" stop-opacity="0"/>
    </radialGradient>
  </defs>
</svg>
